# xmcd
# 
# Track frame offsets:
#     150
#     35909
#     56735
#     85734
#     114984
#     134898
#     167284
#     184882
#     204291
#     242810
# 
# Disc length: 3617
# 
# Revision: 0
# Processed by: cddbd v1.5.2PL0 Copyright (c) Steve Scherf et al.
# Submitted via: fre:ac v1.0.31
# 
DISCID=8a0e1f0a
DTITLE=Grace Mahya - Last Live at DUG
DYEAR=0
DGENRE=Jazz
TTITLE0=Route66
TTITLE1=Moonlight in Vermont
TTITLE2=Bei mir best du schon
TTITLE3=Kiss of Life
TTITLE4=Mona Lisa
TTITLE5=Comin' Home Baby
TTITLE6=My Heart Belongs toDaddy
TTITLE7=Teach Me Tonight
TTITLE8=Sunny
TTITLE9=The Way We Were
EXTD=
EXTT0=
EXTT1=
EXTT2=
EXTT3=
EXTT4=
EXTT5=
EXTT6=
EXTT7=
EXTT8=
EXTT9=
PLAYORDER=
